<svg width="256" height="51" viewBox="0 0 256 51" fill="none" xmlns="http://www.w3.org/2000/svg">
<path d="M13.8723 38V15.5H23.9523C28.0083 15.5 30.7923 16.364 32.3043 18.092C33.8163 19.82 34.5723 22.712 34.5723 26.768C34.5723 30.8 33.8163 33.68 32.3043 35.408C30.7923 37.136 28.0083 38 23.9523 38H13.8723ZM24.0603 21.26H21.0723V32.24H24.0603C25.0443 32.24 25.7523 32.132 26.1843 31.916C26.6403 31.676 26.8683 31.148 26.8683 30.332V23.168C26.8683 22.352 26.6403 21.836 26.1843 21.62C25.7523 21.38 25.0443 21.26 24.0603 21.26ZM37.0754 38V20.9L44.2754 20V38H37.0754ZM37.4714 18.848C36.9434 18.44 36.6794 17.696 36.6794 16.616C36.6794 15.536 36.9434 14.78 37.4714 14.348C38.0234 13.916 39.0914 13.7 40.6754 13.7C42.2834 13.7 43.3514 13.916 43.8794 14.348C44.4314 14.78 44.7074 15.536 44.7074 16.616C44.7074 17.696 44.4314 18.44 43.8794 18.848C43.3514 19.256 42.2834 19.46 40.6754 19.46C39.0914 19.46 38.0234 19.256 37.4714 18.848ZM49.5604 20.72C51.1204 19.88 53.2444 19.46 55.9324 19.46C58.6204 19.46 61.0924 19.832 63.3484 20.576L62.5204 25.472C60.6484 24.944 58.7764 24.68 56.9044 24.68C56.3284 24.68 55.5124 24.728 54.4564 24.824V25.976C58.3444 25.976 60.9844 26.552 62.3764 27.704C63.0724 28.28 63.5644 28.916 63.8524 29.612C64.1404 30.284 64.2844 31.112 64.2844 32.096C64.2844 33.056 64.1644 33.92 63.9244 34.688C63.7084 35.456 63.3604 36.068 62.8804 36.524C62.4244 36.98 61.9444 37.352 61.4404 37.64C60.9364 37.928 60.2764 38.132 59.4604 38.252C58.1884 38.444 56.7124 38.54 55.0324 38.54C52.0564 38.54 49.3684 38.192 46.9684 37.496L47.8684 32.384C49.8844 33.008 52.0684 33.32 54.4204 33.32C55.5004 33.32 56.4844 33.272 57.3724 33.176V32.024C53.5324 32.024 50.8804 31.52 49.4164 30.512C47.9764 29.504 47.2564 27.836 47.2564 25.508C47.2564 23.156 48.0244 21.56 49.5604 20.72ZM80.0296 32.6L80.4616 37.784C79.2136 38.288 77.6056 38.54 75.6376 38.54C72.2776 38.54 69.8416 37.76 68.3296 36.2C66.8416 34.616 66.0976 32.216 66.0976 29C66.0976 25.784 66.8416 23.396 68.3296 21.836C69.8416 20.252 72.2776 19.46 75.6376 19.46C77.7256 19.46 79.3336 19.712 80.4616 20.216L79.5976 25.112C78.3256 24.848 77.3176 24.716 76.5736 24.716C74.7496 24.716 73.8376 25.352 73.8376 26.624V33.068C74.5336 33.212 75.4216 33.284 76.5016 33.284C77.6056 33.284 78.7816 33.056 80.0296 32.6ZM90.181 20V33.284H91.297C92.161 33.284 92.785 33.2 93.169 33.032C93.577 32.84 93.781 32.42 93.781 31.772V20H100.981V38H97.381L95.293 35.948C93.853 37.676 91.801 38.54 89.137 38.54C87.001 38.54 85.441 38.084 84.457 37.172C83.473 36.26 82.981 34.736 82.981 32.6V20H90.181ZM106.267 20.72C107.827 19.88 109.951 19.46 112.639 19.46C115.327 19.46 117.799 19.832 120.055 20.576L119.227 25.472C117.355 24.944 115.483 24.68 113.611 24.68C113.035 24.68 112.219 24.728 111.163 24.824V25.976C115.051 25.976 117.691 26.552 119.083 27.704C119.779 28.28 120.271 28.916 120.559 29.612C120.847 30.284 120.991 31.112 120.991 32.096C120.991 33.056 120.871 33.92 120.631 34.688C120.415 35.456 120.067 36.068 119.587 36.524C119.131 36.98 118.651 37.352 118.147 37.64C117.643 37.928 116.983 38.132 116.167 38.252C114.895 38.444 113.419 38.54 111.739 38.54C108.763 38.54 106.075 38.192 103.675 37.496L104.575 32.384C106.591 33.008 108.775 33.32 111.127 33.32C112.207 33.32 113.191 33.272 114.079 33.176V32.024C110.239 32.024 107.587 31.52 106.123 30.512C104.683 29.504 103.963 27.836 103.963 25.508C103.963 23.156 104.731 21.56 106.267 20.72ZM140.459 31.376V30.404H138.623V24.896H147.299V36.92C144.443 38 141.491 38.54 138.443 38.54C134.339 38.54 131.519 37.544 129.983 35.552C129.191 34.52 128.639 33.308 128.327 31.916C128.015 30.524 127.859 28.808 127.859 26.768C127.859 24.704 128.015 22.988 128.327 21.62C128.663 20.228 129.251 19.016 130.091 17.984C131.675 15.968 134.735 14.96 139.271 14.96C140.207 14.96 141.419 15.056 142.907 15.248C144.419 15.44 145.523 15.656 146.219 15.896L145.139 21.404C143.195 21.068 141.431 20.9 139.847 20.9C138.287 20.9 137.183 21.02 136.535 21.26C135.911 21.5 135.599 21.98 135.599 22.7V32.888H137.975C138.839 32.888 139.463 32.804 139.847 32.636C140.255 32.444 140.459 32.024 140.459 31.376ZM159.057 19.46C164.817 19.46 167.697 21.44 167.697 25.4V38H164.097L162.045 35.948C161.349 36.764 160.401 37.4 159.201 37.856C158.001 38.312 156.861 38.54 155.781 38.54C154.725 38.54 153.873 38.456 153.225 38.288C152.577 38.12 151.941 37.832 151.317 37.424C149.949 36.56 149.265 34.952 149.265 32.6C149.265 28.28 152.529 26.12 159.057 26.12H160.497V24.824C159.729 24.776 159.093 24.752 158.589 24.752C155.877 24.752 153.549 25.076 151.605 25.724L150.741 20.576C153.141 19.832 155.913 19.46 159.057 19.46ZM156.537 31.808V33.284H158.013C159.069 33.284 159.741 33.164 160.029 32.924C160.341 32.684 160.497 32.372 160.497 31.988V30.296H159.021C158.157 30.296 157.521 30.392 157.113 30.584C156.729 30.752 156.537 31.16 156.537 31.808ZM178.15 14.06V32.852C178.918 32.996 179.506 33.08 179.914 33.104L179.59 38.396C176.518 38.396 174.49 38.216 173.506 37.856C172.282 37.4 171.526 36.824 171.238 36.128C171.046 35.696 170.95 35.192 170.95 34.616V14.6L178.15 14.06ZM189.26 14.06V32.852C190.028 32.996 190.616 33.08 191.024 33.104L190.7 38.396C187.628 38.396 185.6 38.216 184.616 37.856C183.392 37.4 182.636 36.824 182.348 36.128C182.156 35.696 182.06 35.192 182.06 34.616V14.6L189.26 14.06ZM200.189 31.88V33.14C200.909 33.212 201.629 33.248 202.349 33.248C204.581 33.248 206.837 32.888 209.117 32.168L209.981 37.46C207.293 38.18 204.629 38.54 201.989 38.54C198.629 38.54 196.193 37.76 194.681 36.2C193.193 34.616 192.449 32.216 192.449 29C192.449 25.784 193.193 23.396 194.681 21.836C196.193 20.252 198.617 19.46 201.953 19.46C205.313 19.46 207.629 19.916 208.901 20.828C210.173 21.74 210.809 23.444 210.809 25.94C210.809 28.052 210.041 29.576 208.505 30.512C206.993 31.424 204.221 31.88 200.189 31.88ZM200.189 26.228V27.704H201.665C202.529 27.704 203.153 27.62 203.537 27.452C203.945 27.26 204.149 26.84 204.149 26.192V24.716H202.673C201.809 24.716 201.173 24.812 200.765 25.004C200.381 25.172 200.189 25.58 200.189 26.228ZM213.525 20H217.125L219.105 22.016C220.521 20.72 222.297 19.868 224.433 19.46L224.865 26.264C224.289 26.288 223.533 26.432 222.597 26.696C221.685 26.96 221.061 27.296 220.725 27.704V38H213.525V20ZM229.257 36.128L225.225 20H232.425L234.405 31.7H234.765L236.745 20H243.945L239.445 38C238.773 40.352 237.933 41.924 236.925 42.716C235.917 43.532 234.465 43.94 232.569 43.94H225.585V39.26L228.969 38.612C230.697 38.228 231.825 37.796 232.353 37.316C232.641 37.052 232.881 36.728 233.073 36.344L233.037 36.128H229.257Z" fill="white"/>
</svg>
